<?xml version="1.0" encoding="UTF-8"?>
<svg id="Layer_1" data-name="Layer 1" xmlns="http://www.w3.org/2000/svg" viewBox="0 0 1115 1115">
  <rect x="6" y="6" width="1103" height="1103" style="fill: #fff; stroke: #fff; stroke-miterlimit: 10; stroke-width: 12px;"/>
  <path d="m798.33,428.18h-335.27l5.6,27.16c103.55,6.93,179.89,51.39,217.36,94.68,14.41,16.63,24.5,34.42,29.77,51.78,7.71,25.39,5.82,50.11-6.26,71.84-1.55,2.83-3.27,5.54-5.1,8.2,2.27,4.88,3.99,9.76,5.38,14.47.44,1.28.89,2.61,1.22,3.94h.06c1.77,6.26,2.66,12.36,2.66,18.4,0,2.11-.11,1.44-.22,3.27l.06,1.5h.17c0-1,0-1.61,0,0s-.06,3.16-.17,4.77h84.43l69.57-299.9h-69.24v-.11h0ZM240.22,785.06c132.43-.22,264.81-.39,397.24,0,7.87.06,14.36,6.49,14.36,14.36,0,21.4-8.98,63.31-57.37,63.31h-311.15c-48.39,0-57.37-41.85-57.37-63.31-.06-7.93,6.43-14.36,14.3-14.36h0Zm296.57-220.68c12.2,0,22.06,9.87,22.06,22.06s-9.87,22.06-22.06,22.06-22.06-9.87-22.06-22.06,9.87-22.06,22.06-22.06h0Zm-192.41,1.55c12.2,0,22.06,9.87,22.06,22.06s-9.87,22.06-22.06,22.06-22.06-9.87-22.06-22.06,9.87-22.06,22.06-22.06h0Zm95.4-21.07c12.2,0,22.06,9.87,22.06,22.06s-9.87,22.06-22.06,22.06-22.06-9.87-22.06-22.06c.06-12.2,9.92-22.06,22.06-22.06h0Zm178.94,114.14h-355.11c-22.56,0-41.08-18.46-41.08-41.02h0c0-58.43,116.47-100.89,214.2-101.89,192.41-1.94,278.72,142.91,181.99,142.91h0Zm32.15,56.27c.61,1.05.94,2.11.94,3.33,0,.72-.06,1.55-.06,2.38.06.83.06,1.61.06,2.38,0,1.16-.33,2.27-.94,3.33-3.27,14.25-16.35,32.87-56.43,32.87h-311.15c-40.13,0-53.16-18.63-56.43-32.87-.61-1.05-.94-2.11-.94-3.33,0-.72.06-1.55.06-2.38-.06-.83-.06-1.61-.06-2.38,0-1.16.33-2.27.94-3.33,3.27-14.25,16.3-32.87,56.43-32.87h161.15l59.43,61.37,59.04-61.37h31.6c40.08.06,53.11,18.68,56.38,32.87h0Zm62.64,8.09c.11,4.82.17,1.77.17,0h-.17Zm-249.95-418.25h174.12l18.96-84.26c5.49-20.34,21.45-31.71,49.61-39.36h71.62c10.92,2.16,17.24,9.76,18.9,22.84v22.06c-3.6,12.03-10.87,16.91-22.06,18.9h-59.76l-12.69,59.81h164.75c13.86,0,25.11,11.31,25.11,25.11v28.55c0,13.86-11.31,25.11-25.11,25.11h-403.45c-13.86,0-25.11-11.31-25.11-25.11v-28.55c0-13.8,11.31-25.11,25.11-25.11h0Zm237.81,552.07h47.29c20.18-4.32,34.2-13.86,40.13-33.87l4.55-47.56h-83.43c2.49,7.48,3.82,15.41,3.82,23.67,0,15.3-2.83,36.75-12.36,57.76h0Z" style="fill: #011936; fill-rule: evenodd; stroke-width: 0px;"/>
</svg>